<?xml version="1.0" encoding="UTF-8"?>
<svg id="Calque_1" xmlns="http://www.w3.org/2000/svg" version="1.1" viewBox="0 0 32 32.2">
  <!-- Generator: Adobe Illustrator 29.3.1, SVG Export Plug-In . SVG Version: 2.1.0 Build 151)  -->
  <defs>
    <style>
      .st0 {
        fill: #fff;
      }
    </style>
  </defs>
  <path class="st0" d="M24.5,11.7h-.6c-1.2-9.5-14.6-9.5-15.7,0-8.7-.4-9.3,12.2-.6,12.6h2.8c.4,0,.7-.3.7-.8,0-.4-.3-.7-.7-.7h-2.8c-2.6,0-4.8-2.1-4.8-4.8,0-2.6,2.1-4.8,4.8-4.8h0c.7,0,2,.3,2.1-.8,0-3.5,2.9-6.4,6.4-6.4,3.5,0,6.4,2.9,6.4,6.4,0,1.4-.5,2.7-1.3,3.9-.2.3-.2.8.2,1,.3.2.8.2,1-.1.9-1.2,1.4-2.6,1.5-4h.6c6.3.2,6.3,9.4,0,9.6h-2.8c-.4,0-.8.3-.8.8s.3.8.8.8h2.8c8.3-.3,8.3-12.3,0-12.6Z"/>
  <path class="st0" d="M18.4,23.2l-1.6,1.6v-5.3c0-.4-.4-.7-.8-.7-.4,0-.7.3-.7.7v5.3l-1.6-1.6c-.3-.3-.8-.3-1.1,0-.3.3-.3.7,0,1l2.9,2.9c.3.3.8.3,1.1,0l2.9-2.9c.3-.3.3-.8,0-1.1-.3-.3-.7-.3-1,0Z"/>
</svg>