<?xml version="1.0" encoding="UTF-8"?>
<svg id="Calque_1" xmlns="http://www.w3.org/2000/svg" version="1.1" viewBox="0 0 110 135">
  <!-- Generator: Adobe Illustrator 29.4.0, SVG Export Plug-In . SVG Version: 2.1.0 Build 152)  -->
  <defs>
    <style>
      .st0 {
        fill: #fff;
      }
    </style>
  </defs>
  <path class="st0" d="M64.9,50.1c7.3,7.3,12.4,15.3,14.9,22.5,2.6,7.6,2.2,14.4-1.9,18.4l-.2.2c-4.8,4.9-10.8,8.3-17.1,10-6.5,1.8-13.4,1.9-20.1.2-1.1-.3-2.1-.3-3.1,0-1,.3-1.9.8-2.6,1.6l-2.5,2.5c-1.7,1.7-4.3,2.6-7,2.5-2.6,0-5.4-1-7.5-3l-7.6-7.6c-2.1-2.1-3.1-4.9-3.1-7.6,0-2.7.9-5.4,2.5-7l2.5-2.5c.8-.8,1.3-1.7,1.6-2.6.3-1,.3-2,0-3.1-1.8-6.7-1.6-13.6.2-20.1,1.8-6.4,5.2-12.3,10.1-17.2l.2-.2c4.1-4.1,10.8-4.5,18.4-1.9,8.3,2.8,16.3,8.7,22.5,14.9h0ZM57.3,57.7c4.1,4.1,6,9,4.1,10.9-1.9,1.9-6.8,0-10.9-4.1-4.1-4.1-6-9-4.1-10.9s6.8,0,10.9,4.1ZM60.4,35.1c0,1.1-.9,2-2,2s-2-.9-2-2V14c0-1.1.9-2,2-2s2,.9,2,2v21.1ZM79.9,58.6c-1.1,0-2-.9-2-2s.9-2,2-2h21.1c1.1,0,2,.9,2,2s-.9,2-2,2h-21.1ZM73.4,44.4c-.8.8-2,.8-2.8,0s-.8-2,0-2.8l12.9-12.9c.8-.8,2-.8,2.8,0s.8,2,0,2.8l-12.9,12.9ZM66.8,94.5c-2.3-.2-4.8-.7-7.3-1.6-7.2-2.4-15.2-7.6-22.5-14.9-7.3-7.3-12.4-15.3-14.9-22.5-.9-2.6-1.4-5-1.6-7.3-1.3,2.3-2.3,4.8-3,7.3-1.6,5.8-1.7,12-.2,18,.5,1.7.5,3.5,0,5.1-.4,1.6-1.3,3.2-2.6,4.4l-2.5,2.5c-.9.9-1.4,2.5-1.4,4.2,0,1.7.6,3.5,1.9,4.8l7.6,7.6c1.3,1.2,3.1,1.8,4.8,1.8,1.7,0,3.3-.5,4.2-1.4l2.5-2.5c1.3-1.3,2.8-2.2,4.4-2.6,1.6-.4,3.4-.4,5.1,0,6,1.6,12.2,1.5,18-.1,2.5-.7,5-1.7,7.3-3h0ZM46.2,42.4c-4.6-1.6-8.4-1.5-10.5.6-2.1,2.1-2.2,5.9-.6,10.5,1.7,5,5.4,10.7,10.5,15.9,5.2,5.2,10.9,8.8,15.9,10.5,4.6,1.6,8.4,1.5,10.5-.6,2.1-2.1,2.2-5.9.6-10.5-2-5.9-6.1-11.5-10.5-15.9-4.4-4.4-10-8.5-15.9-10.6h0Z"/>
</svg>