<?xml version="1.0" encoding="UTF-8"?>
<svg id="Calque_1" xmlns="http://www.w3.org/2000/svg" version="1.1" viewBox="0 0 110 105">
  <!-- Generator: Adobe Illustrator 29.3.1, SVG Export Plug-In . SVG Version: 2.1.0 Build 151)  -->
  <defs>
    <style>
  .st0 {
    fill: currentColor;
    fill-rule: evenodd;
  }
</style>
  </defs>
  <path class="st0" d="M19.2,48.2c0-19.9,16-36.1,35.8-36.1s35.8,16.2,35.8,36.1-.7,1.6-1.6,1.6h-8c-.9,0-1.6-.7-1.6-1.6,0-13.9-11.1-25.1-24.7-25.1s-24.7,11.3-24.7,25.1-.7,1.6-1.6,1.6h-8c-.9,0-1.6-.7-1.6-1.6h0ZM31.6,62.1v14.1c0,2.6-2.1,4.7-4.7,4.7h-4c-2.6,0-4.7-2.1-4.7-4.7v-14.1c0-2.6,2.1-4.7,4.7-4.7h4c2.6,0,4.7,2.1,4.7,4.7ZM33.1,61.5c2.2,1.4,3.7,4.3,3.7,7.6s-1.6,6.2-3.7,7.6c0-.2,0-.4,0-.6v-14.1c0-.2,0-.4,0-.6h0ZM77,76.8c-2.2-1.4-3.8-4.3-3.8-7.7s1.6-6.3,3.8-7.7c0,.2,0,.4,0,.7v14.1c0,.2,0,.4,0,.7h0ZM91.9,62.1v14.1c0,2.6-2.1,4.7-4.7,4.7h-4c-2.6,0-4.7-2.1-4.7-4.7v-14.1c0-2.6,2.1-4.7,4.7-4.7h4c2.6,0,4.7,2.1,4.7,4.7ZM28.4,51.3v4.8c-.5-.1-1-.2-1.6-.2h-4c-.6,0-1.2,0-1.7.2v-4.8h7.3ZM88.9,51.3v4.8c-.5-.1-1.1-.2-1.6-.2h-4c-.6,0-1.1,0-1.6.2v-4.8h7.3ZM93.5,62.1h2.1c.9,0,1.6.7,1.6,1.6v10.9c0,.9-.7,1.6-1.6,1.6h-2.1v-14.1ZM16.6,76.2h-2.2c-.9,0-1.6-.7-1.6-1.6v-10.9c0-.9.7-1.6,1.6-1.6h2.2v14.1ZM53.4,45.3c0-.9.7-1.6,1.6-1.6s1.6.7,1.6,1.6v46.9c0,.9-.7,1.6-1.6,1.6s-1.6-.7-1.6-1.6v-46.9ZM59.7,50c0-.9.7-1.6,1.6-1.6s1.6.7,1.6,1.6v37.5c0,.9-.7,1.6-1.6,1.6s-1.6-.7-1.6-1.6v-37.5ZM47.2,50c0-.9.7-1.6,1.6-1.6s1.6.7,1.6,1.6v37.5c0,.9-.7,1.6-1.6,1.6s-1.6-.7-1.6-1.6v-37.5ZM40.9,57.8c0-.9.7-1.6,1.6-1.6s1.6.7,1.6,1.6v21.9c0,.9-.7,1.6-1.6,1.6s-1.6-.7-1.6-1.6v-21.9ZM65.9,57.8c0-.9.7-1.6,1.6-1.6s1.6.7,1.6,1.6v21.9c0,.9-.7,1.6-1.6,1.6s-1.6-.7-1.6-1.6v-21.9Z"/>
</svg>