<?xml version="1.0" encoding="UTF-8"?>
<svg id="Calque_1" xmlns="http://www.w3.org/2000/svg" version="1.1" viewBox="0 0 64 80">
  <!-- Generator: Adobe Illustrator 29.4.0, SVG Export Plug-In . SVG Version: 2.1.0 Build 152)  -->
  <path d="M40.2,2c-.8,0-1.5.5-1.8,1.2-.3.7-.1,1.6.4,2.2l8.4,8.5-19.6,19.6c-.8.8-.8,2,0,2.8.8.8,2,.8,2.8,0l19.6-19.6,8.5,8.6c.6.6,1.4.8,2.2.4.8-.3,1.2-1,1.2-1.8V4c0-1.1-.9-2-2-2h-19.8Z"/>
  <path d="M28,14c-12.2,0-22,9.8-22,22s9.8,22,22,22,22-9.8,22-22,.9-2,2-2,2,.9,2,2c0,14.4-11.6,26-26,26S2,50.4,2,36,13.6,10,28,10s2,.9,2,2-.9,2-2,2Z"/>
</svg>