<?xml version="1.0" encoding="UTF-8"?>
<svg id="Calque_1" xmlns="http://www.w3.org/2000/svg" xmlns:svg="http://www.w3.org/2000/svg" xmlns:sodipodi="http://sodipodi.sourceforge.net/DTD/sodipodi-0.dtd" xmlns:rdf="http://www.w3.org/1999/02/22-rdf-syntax-ns#" xmlns:inkscape="http://www.inkscape.org/namespaces/inkscape" xmlns:dc="http://purl.org/dc/elements/1.1/" xmlns:cc="http://creativecommons.org/ns#" version="1.1" viewBox="0 0 100 125">
  <!-- Generator: Adobe Illustrator 29.3.1, SVG Export Plug-In . SVG Version: 2.1.0 Build 151)  -->
  <defs>
    <style>
      .st0 {
        fill: #fff;
      }
    </style>
  </defs>
  <path class="st0" d="M50.1,19c-3.7,0-6.4,1.5-8.3,2.9-1.9,1.4-3,2.6-4.9,3.3-.8.3-1.6.9-1.9,1.8h-18v6h66v-6h-18c-.3-.8-1-1.5-1.9-1.8-2-.8-3.2-1.9-5-3.3-1.8-1.4-4.5-2.9-8-2.9ZM50.1,25c2.2.1,3.5.9,4.8,2h-9.9c1.8-1.4,3.6-2,5.1-2ZM20,35v56c0,3.5.9,6.6,3.1,8.8,2.2,2.2,5.4,3.1,8.9,3.1h36c3.5,0,6.6-.9,8.8-3.1,2.2-2.2,3.1-5.4,3.1-8.8v-56H20ZM26,41h48v50c0,2.5-.6,3.8-1.4,4.6s-2.1,1.3-4.6,1.3h-36c-2.5,0-3.9-.6-4.7-1.4-.8-.8-1.4-2.1-1.4-4.6v-50ZM33,51v36h6v-36h-6ZM47,51v36h6v-36h-6ZM61,51v36h6v-36h-6Z"/>
</svg>