<?xml version="1.0" encoding="UTF-8"?>
<svg id="Calque_1" xmlns="http://www.w3.org/2000/svg" version="1.1" viewBox="0 0 595.3 543.9">
  <!-- Generator: Adobe Illustrator 29.4.0, SVG Export Plug-In . SVG Version: 2.1.0 Build 152)  -->
  <defs>
    <style>
      .st0 {
    fill: currentColor;
  }
    </style>
  </defs>
  <path class="st0" d="M514.5,228.2c-10.4-15.7-27.9-24.8-38.8-40.1-8.3-11.8-10.1-26.9-18.3-38.7-7-9.9-15.1-19-24.9-26.2-4.8-3.5-10.2-6.6-16.3-7.3-7.1-.8-14.1.6-21.1.8-53.3-2.8-107-5-160.2,1.3-23.4,2.9-46.8,7.5-68.8,16.2-16,6.3-31.3,15-43.6,27.3.3,8.4-.5,17-4.4,24.6-6.8,14.2-21.7,22.2-29.2,35.9-4.6,11.7-3.7,24.9.2,36.6,5,15.5,15,28.9,19.2,44.7,4.3,20,2.8,40.5.2,60.6-2.8,20.8-5.6,41.9-4.1,63,2.5,6.9,7.1,13,12,18.5,12.6,13.3,30.7,19.8,48.6,21.7,26.2,2.8,52.5-1.5,78-7,10.4-2.3,20.7-5.2,31.3-6.8,12.1-2.2,24.6-3.5,36-8.5,12.4-5.2,24-12,36-17.9,25.7-12.6,52.5-23.2,77.1-38,17-10.3,33.3-22.8,44.5-39.5,4.7-8.2,6.5-17.6,11.3-25.8,7.3-12.4,18.4-21.6,28.1-32,7.3-7.8,12.9-17.5,14.1-28.3,1.3-12,.1-25-6.9-35.2ZM506,276.5c-6.9,12-18.1,21.1-30.5,26.9.6.3,1.2.5,1.8.8,2.3-.8,4.3-2.2,6.3-3.5.3.6.8,1.8,1.1,2.3-3.2,2.1-6.7,3.9-9.1,7-5.6,6.8-7.3,15.7-10.5,23.7-3.4,9.3-9.9,17.1-16.7,24-16.6,16-37,27.2-57.4,37.6-14.6,7.1-29.4,13.8-44.1,20.8-12.9,6-24.8,13.6-37.7,19.5-2.9,1.2-5.7,2.6-8.8,2.9-4.4,0-8.8-1.2-13.2-.7-7.7.8-14.9,4-22.2,6.5-15.1,5.7-31,8.5-46.9,10.8-17.9,2.4-36,3.4-53.9,1.1-14.6-2-30-6.2-40.7-16.9-5.7-6.1-10.5-14.2-9.7-22.8-.2-34.8,9.1-69.2,6.3-104.1-1.2-10.7-2.9-21.7-8.6-31-4.5-7.8-10.8-14.8-13-23.8-2.1-10.6-2.2-22.2,2.6-32.1,6.1-12.9,20-20,25.8-33.1,3.1-6.8,3.4-14.4,2.9-21.8,15.1-17.7,36.3-30.5,59.2-34.8,15.7-3,31.5.3,47.2,1,31.6,2,62.4-8.8,94-7.3,14.5,1,28.7,5.1,41.9,11.3,14.5,6.8,27.6,16.2,41.1,24.7,4.3,2.6,8.6,5.4,13.3,7.3-14.2-11.2-28.8-22.2-44.7-30.8-16.8-9-35.5-14.5-54.5-15.1-31.6-1-62.5,8.2-94,7.6-7.1-.2-14.4-.6-21.3-2.3,53.1-7.7,106.8-11,160.4-9.1,12.6.8,25.4,0,38,1.6,10.7,1.4,20.3,7.5,27.2,15.6,16.4,19.1,21.5,45.2,38.2,64-7.2.8-14.4-1.3-21.5-.3-2.2.2-4.1,1.3-5.8,2.5,10.9-1.4,22.3-1,32.5,3.5,14,5.7,25.4,17.7,29.6,32.3,3.3,11.3,1.5,23.9-4.4,34.1Z"/>
  <path class="st0" d="M190.1,146.8c23.2,2.8,46.6,5.4,70,3.9,12.8-.5,24.7-5.5,37.3-6.8,16.2-1.5,32.6-.8,48.5,2.9,26.1,5.8,49.7,20,69.4,37.8-2.8-4.5-6.7-8-10.5-11.7-11.5-10.7-25.3-18.8-40-24-24.1-8.6-50.4-10-75.6-6.5-22.9,3.4-45.9,7.4-69.1,5.4-11.4-1.2-22.7-5.1-34.3-3.8-5.8.7-11.2,4-14.3,9.1,4.6-1,7.6-4.7,11.6-6.7,2.3,0,4.6.3,6.8.6Z"/>
  <path class="st0" d="M364.1,162.9c13.8,4.1,27.6,11.5,34.9,24.5-2.9-11.3-13.3-18.6-23.3-23.2-21.7-9.4-46.1-11.1-69.4-8.7-2.4.2-4.9.6-7.2,1.4,21.8-1.1,44-.2,65.1,6Z"/>
  <path class="st0" d="M197,163.1c15.2-2.4,31-.4,45.3,5.2.3-1.2,1.9-3.1.2-4-2.6-1.8-5.8-1.8-8.8-2.4-16-3.4-33-3.2-48.7,1.9-4.6,1.6-9.4,3.5-12.7,7.1-2.5,5-4.7,10.3-5,16,1.6-3.7,2.8-7.5,5.3-10.7,5.8-7.6,15.2-11.5,24.4-13.1Z"/>
  <path class="st0" d="M297.4,184.8c1.1-3.3.5-6.7.8-10.1,2-5.6,5.9-10.5,11.1-13.5-1.6-.7-3.4-2.1-4.9-.5-3.4,2.9-5.2,7.2-8.5,10.3-.4,4.6-.8,9.6,1.5,13.8Z"/>
  <path class="st0" d="M234.7,172.6c-1.3.3-2.5.7-3.8,1,1.5,3.2,4.5,5.3,6.5,8.2,1.9,5.9-3.1,13.4,2.2,18.2.2-6.6,0-13.2,0-19.8-2.1-2.2-3.7-4.8-5-7.6Z"/>
  <path class="st0" d="M367.1,213.4c7.8.5,15.2,4.4,23.1,4,3.5,0,6.5-1.9,9.1-4-2.2-10.8-10.7-19.2-20.6-23.5-15.5-6.8-33.1-7.1-49.5-4.2-13,2.7-26.4,7.6-35.4,17.8-2.5,3.3-5.9,7.2-4.1,11.6,2.4,7,10.5,8.8,15.3,13.6,18.8-10.3,40.3-17.2,62-15.4ZM386.1,204.7c1.4,1,1.2,2.8,1.2,4.3-3-2.6-6.9-2.5-10.6-3-2.1-.2-2.1-2.5-2.5-4.1,4.1-.7,8.8-.2,11.9,2.8ZM321.3,210.7c-5.7,3.2-12.1,7.8-19,5.1-.7-5.4,3-10,7.4-12.6,8.2-5,17.5-7.3,26.6-10.2-1.1,4.8,2,8.9,2.7,13.6-6.2-.7-12.4,1-17.7,4.1Z"/>
  <path class="st0" d="M258,218.5c1.6-1.4,1.6-3.7,1.7-5.6-4.9-2.9-10.5-.8-15.5.7-4.7-7.4-13-11.3-20.9-14.4-11.8-4.1-24.8-6.2-37-3.2-7.6,1.8-14.5,7.3-16.2,15.2,11.7,5,24.6,5,37.1,6.3,9.6.9,19.6,1.9,28,7v16.1c-18,13.7-34.6,29.8-55.9,38.2,9.6,1.6,16.8-7.1,25.6-9.3,1.1,2.3,1.8,4.9,3.3,6.9,3.1.3,5.2-2.5,7.1-4.6,9.3,6,14.8,16.4,24.3,22.3,2.7,1.7,6.2,2.7,9.2,1.1,4.6-2.6,6.9-7.6,8.8-12.3-1.2-.7-2.4-1.5-3.6-2.2-3.3,1.5-5.8,5-9.7,4.7-9.7-3.2-15.7-12.2-20.5-20.6,2.9-9.5,14.3-10.9,20.4-17.6,0-7,0-14,0-21,3.5-4.5,10-3.9,13.9-7.8ZM194.1,207c-3.1.2-6.6.1-8.8-2.5,5,.3,9.9-.7,14.9-.7,2.4,0,4.6,1,6.3,2.6-4.2-.1-8.3.2-12.4.6Z"/>
  <path class="st0" d="M403.9,204.4c3.7,3.6,9,4.1,13.9,4.5-2,3.3-6.4,1.9-9.6,2.3,4.9,4.3,15,2.7,16.2-4.3-7.1,1.5-13.4-3.3-20.5-2.5Z"/>
  <path class="st0" d="M128.8,278.1c-6-4.5-14.2-4.5-20.1-9-1.7-1.2-2.2-3.4-2.9-5.3-2.9-9-3.9-19-.5-28,3.7-10.2,12.8-17.7,22.8-21.4,11.9-4.7,25-4.9,37.6-3.2-2.9-3.1-7.4-4.1-11.5-3.3-7,1.1-14,2.6-21.1,1.5-1.6,0-3.2-.8-4.7-.2-12.9,4.8-23.6,15.9-26.8,29.5-2.5,10.4-1.2,21.7,3.2,31.4,4.6,4.6,11.2,5.8,16.9,8.3,3,1.2,5.6,3.3,8.3,5,0-1.8.5-4-1.2-5.2Z"/>
  <path class="st0" d="M488.2,218.6c-7.8-7.2-18.8-9.6-29.1-9.5-5.5.1-11.2-.5-16.5,1.2,11.8,1.3,24.1-.4,35.4,4.2,8.5,3.3,14.7,10.8,18.1,19.1.8,8.3,1.1,16.7.2,25,.6.6,1.2,1.3,1.7,1.9.2-5.3.9-10.7.4-16-.6-9.4-3.3-19.2-10.3-25.9Z"/>
  <path class="st0" d="M403.4,215.8c2.1,2.1,4.8,3.6,7.9,3.5-1.4-2.7-4.8-5.1-7.9-3.5Z"/>
  <path class="st0" d="M376,232.5c-9.7-3.1-15.8-13.1-26.1-14.6.2,4.3,1.1,8.8,3.8,12.2,5.1,6.7,13.6,9.5,21.5,10.9,11.9,1.8,24.1.9,35.7-2,8.9-2.4,17.8-5.8,24.5-12.3,6.6-.4,13.4-.7,19.8,1.3,7.2,2,13.7,6.7,17.1,13.4,3.5,6.6,5.1,14.8,2.2,21.9-2.3,6.3-6.3,13-3.3,19.8,7.8-6.6,13.7-16.1,13.9-26.5.6-12.2-6.2-23.9-16.1-30.8-10.9-7.8-25.1-9.9-38.1-7.3-10.2,2-18.4,8.7-27.8,12.5-8.5,3.5-18.3,4.4-27.2,1.6Z"/>
  <path class="st0" d="M133.8,220.4c-6.2,2.2-12.7,4.4-17.8,8.8-.4,7.3-1.5,14.6-1.6,21.9.6.9,1.2,1.7,1.8,2.6,2.4-6.5-.2-13.7,1.9-20.2,2.6-7.2,12.6-6.3,15.8-13.1Z"/>
  <path class="st0" d="M157.4,239.3c5.4,1.4,7.9,7,8.2,12.1,8.6-.4,17.7,1.2,25.7-2.6,4-2,5.5-6.4,5.7-10.6-1.7-1.2-3.7-2.1-5.8-1.5-3.6,1.5-6.5,4.2-9.9,6.1-6-5.6-13.6-9.1-21.3-11.6-8.5-2.5-18.1-4.2-26.5-.2-4.7,2.1-7.5,6.9-8.7,11.7,10.8-.7,21.5-6.2,32.5-3.4Z"/>
  <path class="st0" d="M445.8,246.9c-3-3.9-3.6-9-3.8-13.8-1.9.3-4.2.1-5.5,1.8-2,2.8-1.3,6.5-1.4,9.7-40.3,18.8-81.9,35.4-125.2,46.2-30.1,7.3-61.4,12.1-92.4,8.5-21.4-2.7-43.3-10.2-58.8-25.8-2.9-8.8-.5-18.6-4.5-27.1-1.7.2-4.3-1-5.1,1.1-1.3,3.7-.2,8-2.4,11.5-4.5,8.4-9.2,16.9-10.5,26.5-2.8,20.2-2.2,41.1,2.8,60.9,2.5,9.2,5.9,18.4,12.4,25.7,4.3,4.9,10.7,7.3,16.7,9.3,14.9,4.7,30.6,6.4,46.1,7.7,22.3,1.6,44.6,1.5,66.9,0,19.3-1.5,38.9-3.6,57.1-10.5,19.4-7.3,37.5-17.6,53.9-30.2,9.5-7.4,17.7-16.4,24.7-26.2,8.9-12.1,16.1-25.6,26.7-36.3,1-1.3,3.8-2.2,2.6-4.3-1.4-3.4-1.2-7.2.7-10.4,1.3-2,2.1-5.8,5.2-5.2,5.8.4,12.5,3.9,17.5-.6-6.1-8.3-17.7-10.2-23.8-18.5ZM388,278.8c-.1,8.2-4.1,16.2-11.1,20.6-12.3,7.8-27.5,8.7-40.6,14.9-1.7-6.5-2.5-13.3-4.3-19.8,18.8-4.8,37-11.5,55.9-15.7ZM198.7,305.9c9.5,5.3,21,2.2,31,5.9-3.5,4-.7,9.4-1.3,14.1-11.8,0-24.2.3-35.3-4.2,4.4-4.2,1.8-11.2,5.6-15.7ZM174,296.8c3.8,3.8,8.8,5.7,13.9,6.9.6,4.8-3,8.6-4.3,13-.8,2.4.4,4.8,1.4,7-4.1-1.4-8.2-3.8-12.6-2.8-1-7.8-5.4-18,1.8-24.2ZM147.4,285.7c1.1-2.5,2.5-5,4.5-7-.5,3-1.3,6-3.3,8.5-.3-.4-.9-1.1-1.2-1.5ZM156.8,363.9c-1.2-5.8-4.7-10.6-7.1-15.9-.9-1.8-.8-3.9-.5-5.8,2.2,5.1,5.9,9.3,8.1,14.3,1.1,2.4.5,5.1-.5,7.4ZM152.8,308.4c.1-7.6,4-14.5,8.2-20.5,2.5,9.6.1,19.6-2.4,28.9-3.3-1.5-6-4.5-5.8-8.4ZM164.5,368.2c-1.5-.7-2-2.3-2.6-3.7.8.7,1.7,1.5,2.5,2.3,1.8-.5,3.8-.7,5.1-2.2,2-5.8-5.9-10.8-2.2-16.4,7.1,6.5,10.8,15.6,13.7,24.6-5.5-1.4-11.3-2.1-16.4-4.6ZM190.6,373.5c.6-1.9,1.6-3.9.7-5.8-1.8-5.4-6.2-9.4-7.9-14.9,5.5-.4,10,3.8,15.5,2.9-.3,8,5.4,14.2,6.9,21.7-5.2-.8-10.7-1-15.2-3.9ZM217.3,377.5c-1.8-7.9-6.7-14.6-9.1-22.3,6.7-1.6,14.5-2.5,20.4,1.9,6.7,5.4,7.6,14.7,8.6,22.7-6.7.3-13.5,0-19.9-2.3ZM240.1,310.5c9.8,1.3,19.1-2.6,28.8-2.6,0,6,0,12,0,18-10.5,0-21,0-31.6,0-1.4-5.5,3.2-9.9,2.8-15.4ZM246.5,379.6c-1.1-8.9-3.2-17.6-4.5-26.5,12.1,1.1,24.3-1,35.9-4.5.6,9.7-2.3,19.9,1.8,29.1-10.7,3.6-22.2,1.6-33.2,2ZM277.9,325.8c0-5.8-.1-11.6,0-17.4,1.1-.9,2.7-.8,4.1-1.3,13.5-3,27-6,40.7-8.1,1.9,6.5,2.6,13.4,4.4,20-10.5,1.1-20.5,5-30.9,6.5-6.1.9-12.2.8-18.3.3ZM300.2,376.4c-4.3.5-8.6,0-12.8-1,1.7-9.7-2-19.4-.5-29.1,15.5-2,30.1-7.7,44.6-13.4-.4,5.2-.5,10.7,1.9,15.5,2.8,5.8,6.6,11.2,7.5,17.7-13.6,3.3-26.6,9.1-40.7,10.4ZM350.1,361.6c-.2-9.1-8.4-15.3-9.3-24.1-.4-2.3,0-4.6,0-6.9,15.7-3.8,30.4-10.5,44.7-17.9-1.3,7.9.5,16.5,6.7,22.1-14.4,8.3-26.9,19.9-42.1,26.8ZM397.2,325.8c-1.6-3.5-2.9-7.3-2-11.1,1.3-5.8,6.1-10,11-12.8,5.3-3,11.4-4.8,17.5-5.3-10.3,8.4-12.8,24.7-26.5,29.3ZM429.3,278.8c-9.1,8-21.2,11.5-33,13.2,2.9-5.6,0-11.9.9-17.8,14.7-4.9,26.4-17.5,42.5-18.2.2,8.7-3.8,17.2-10.3,22.8Z"/>
  <path class="st0" d="M307.6,278.1c-.8,1.6-.4,3.4-.4,5.2,2.6.7,5.4,2.1,8.1.8,5.6-2.4,7.4-9,8-14.5,0-3.8.6-7.9-.9-11.5-4.5-4.6-11.2-6.2-17.4-6.9-4.9-.6-11,1.8-11.3,7.4,6.4,3,13.8,1.5,20.4,4,.5,2.4,1.3,5,.4,7.5-1.2,3.5-5.3,4.8-6.8,8.1Z"/>
  <path class="st0" d="M334.2,262.9c9,.9,18.8-2.9,27.2,1.8.3-1.8-.3-3.6-2.3-3.8-9.1-1.7-18.6,1.3-27.6-.9-2.5-.5-4.4-2.6-4.5-5.2.9-.7,1.9-1.4,2.8-2.1-.7-.2-2.1-.6-2.8-.8-2.7,1-2,4.1-1.3,6.2,1.2,3.5,5.3,4.5,8.5,4.7Z"/>
  <path class="st0" d="M119,263.7c2.6,2.5,6.4,3.1,9.9,3.6-3.9-4.3-9.7-6.9-12.4-12.3-.5-.3-1.5-1-2-1.3.6,3.6,1.6,7.5,4.5,10Z"/>
  <path class="st0" d="M487.8,283.2c-4.5,5.4-11.4,8-18.1,9.1,1.7.5,3.5,1.2,5.3.6,7-1.5,12.7-6.3,18.8-9.9,1.8-7,3.1-14.1,4.1-21.2-.6-.8-1.1-1.5-1.7-2.3-.6,8.4-3,17-8.4,23.6Z"/>
  <path class="st0" d="M277,268.4c-3.9,1-7.6,3.9-8.1,8.1,10.1,4.8,22.7-4.1,31.7,4.1,2-3.3,2.3-7.2,2-10.9-8.2-2.6-17.2-3.6-25.7-1.3Z"/>
  <path class="st0" d="M156.1,388.6c.8,4,2.2,8,4.8,11.1,5.1,6.6,13.4,9.6,21.3,11.3,19.1,3.8,38.6,1.4,57.9,1.6,10,.1,20-2,30-.8,27.1,1.2,53.4-8.3,77.6-19.6,18.8-8.7,36.8-19,56.4-26-12.1,1.1-23.3,6.2-34.3,11.2-22.2,10.6-44.1,22.6-68.2,28.5-21.1,5.1-43,4.9-64.5,5.8-16.1,1.4-32.4.3-48.1-3.1-12.7-2.9-25.9-8.5-32.9-20.1Z"/>
  <path class="st0" d="M247.3,423.4c-18.6,2-37.4,3.1-56.2,2-11.9-.9-23.9-2.5-35.2-6.7-7.3-2.6-14.3-6.6-19.8-12.1,0-4.6,0-9.2,0-13.8-.5.3-1.5.9-2,1.2-1.5,3.6,0,7.8.2,11.5,5.1,9,14.2,15.1,23.9,18.1,12.2,3.8,25.2,4.4,38,4.3,64,0,128.3-12.4,186.9-38.4,14.9-6.8,29.7-14,43.3-23.2-12.5.9-23.2,8.1-34.2,13.5-45.2,22.8-94.4,38.3-144.9,43.6Z"/>
  <path class="st0" d="M279.3,399.8c-8.8-4.1-18.8-1.5-28.2-1.5-14.1-.5-28.2-.1-42.3-.3,7.9,2.3,16.3,2.1,24.4,2.3,15.4,0,30.7-1.2,46.1-.6Z"/>
</svg>