<?xml version="1.0" encoding="UTF-8"?>
<svg id="Calque_1" xmlns="http://www.w3.org/2000/svg" xmlns:svg="http://www.w3.org/2000/svg" xmlns:sodipodi="http://sodipodi.sourceforge.net/DTD/sodipodi-0.dtd" xmlns:rdf="http://www.w3.org/1999/02/22-rdf-syntax-ns#" xmlns:inkscape="http://www.inkscape.org/namespaces/inkscape" xmlns:dc="http://purl.org/dc/elements/1.1/" xmlns:cc="http://creativecommons.org/ns#" version="1.1" viewBox="0 0 100 99">
  <!-- Generator: Adobe Illustrator 29.3.1, SVG Export Plug-In . SVG Version: 2.1.0 Build 151)  -->
  <defs>
    <style>
      .st0 {
        fill: #fff;
      }
    </style>
  </defs>
  <path class="st0" d="M50,10.5c-21.8,0-39.5,17.7-39.5,39.5s17.7,39.5,39.5,39.5,39.5-17.7,39.5-39.5S71.8,10.5,50,10.5ZM50,14.5c19.6,0,35.5,15.9,35.5,35.5s-4.2,19.2-11,25.7c-2.3-9.4-8.4-16.8-16.1-20,4.8-2.9,8.1-8.1,8.1-14.1,0-9.1-7.4-16.5-16.5-16.5s-16.5,7.4-16.5,16.5,3.3,11.3,8.1,14.1c-7.7,3.2-13.8,10.6-16.1,20-6.8-6.5-11-15.6-11-25.7,0-19.6,15.9-35.5,35.5-35.5h0ZM50,29.1c6.9,0,12.5,5.6,12.5,12.5s-5.6,12.5-12.5,12.5-12.5-5.6-12.5-12.5,5.6-12.5,12.5-12.5ZM50,58c10,0,18.9,8.5,21,20.6-5.9,4.3-13.2,6.9-21,6.9s-15.2-2.6-21-6.9c2.2-12.1,11-20.6,21-20.6Z"/>
</svg>